<svg height="512pt" viewBox="0 -45 512 512" width="512pt" xmlns="http://www.w3.org/2000/svg"><path d="m7.5 7.5v335.933594h181.367188l67.132812 67.132812 67.132812-67.132812h181.367188v-335.933594zm0 0" fill="#f8e868"/><path d="m218.867188 343.433594h-30l67.132812 67.132812 15-15zm0 0" fill="#e0c938"/><path d="m7.5 7.5h30v335.933594h-30zm0 0" fill="#e0c938"/><path d="m276.671875 227.882812h-41.34375v-65.207031h20.671875c17.871094 0 32.414062-14.566406 32.414062-32.472656 0-17.902344-14.539062-32.46875-32.414062-32.46875s-32.414062 14.566406-32.414062 32.46875h-41.34375c0-40.738281 33.089843-73.886719 73.757812-73.886719s73.757812 33.148438 73.757812 73.886719c0 33.558594-22.449218 61.960937-53.085937 70.9375zm0 0" fill="#dcf0fb"/><path d="m235.328125 257.882812h41.34375v41.34375h-41.34375zm0 0" fill="#dcf0fb"/><g fill="#96d1f3"><path d="m271 57.859375c-4.84375-1.007813-9.859375-1.542969-15-1.542969-40.667969 0-73.757812 33.148438-73.757812 73.886719h30c0-35.59375 25.257812-65.382813 58.757812-72.34375zm0 0"/><path d="m235.328125 162.675781v65.207031h30v-66.582031c-2.953125.890625-6.085937 1.375-9.328125 1.375zm0 0"/><path d="m235.328125 257.882812h30v41.34375h-30zm0 0"/></g><path d="m276 336.726562h-15v-15h15zm-25 0h-15v-15h15zm0 0" fill="#fff"/><path d="m0 0v350.933594h185.761719l70.238281 70.238281 70.238281-70.238281h106.191407v-15h-112.40625l-64.023438 64.027344-64.023438-64.027344h-176.976562v-320.933594h482v320.933594h-36.570312v15h51.570312v-350.933594zm0 0"/><path d="m284.171875 206.546875c31.523437-11.71875 53.085937-42.332031 53.085937-76.34375 0-44.875-36.453124-81.386719-81.257812-81.386719s-81.253906 36.511719-81.253906 81.386719v7.5h56.339844v-7.5c0-13.769531 11.175781-24.96875 24.917968-24.96875 13.734375 0 24.914063 11.203125 24.914063 24.96875 0 13.769531-11.179688 24.972656-24.917969 24.972656h-28.171875v25.855469h15v-10.855469h13.171875c22.007812 0 39.914062-17.929687 39.914062-39.972656 0-22.039063-17.902343-39.96875-39.914062-39.96875-19.449219 0-35.695312 14.003906-39.210938 32.46875h-26.625c3.730469-33.085937 31.832032-58.886719 65.835938-58.886719 36.535156 0 66.253906 29.78125 66.253906 66.386719 0 29.300781-19.609375 55.511719-47.691406 63.738281l-5.390625 1.578125v24.867188h-26.34375v-11.355469h-15v26.355469h56.34375zm0 0"/><path d="m227.828125 306.726562h56.34375v-56.339843h-56.34375zm15-41.34375h26.34375v26.34375h-26.34375zm0 0"/></svg>