<svg height="512pt" viewBox="0 -17 512.00021 512" width="512pt" xmlns="http://www.w3.org/2000/svg"><path d="m464.367188 7.5h-180.71875c-22.164063 0-40.132813 17.96875-40.132813 40.132812v95.265626c0 22.164062 17.96875 40.132812 40.132813 40.132812h31.566406l-9.207032 48.570312c-.816406 4.300782 4.113282 7.332032 7.582032 4.664063l69.238281-53.234375h81.539063c22.167968 0 40.132812-17.96875 40.132812-40.132812v-95.265626c0-22.164062-17.96875-40.132812-40.132812-40.132812zm0 0" fill="#a5dffa"/><path d="m312.375 198.027344-6.367188 33.574218c-.816406 4.300782 4.113282 7.332032 7.582032 4.664063l69.238281-53.234375h-50.953125zm0 0" fill="#6fccf7"/><path d="m464.367188 7.5h-50.953126c22.167969 0 40.132813 17.96875 40.132813 40.132812v95.265626c0 22.164062-17.964844 40.132812-40.132813 40.132812h50.953126c22.167968 0 40.132812-17.96875 40.132812-40.132812v-95.265626c0-22.164062-17.96875-40.132812-40.132812-40.132812zm0 0" fill="#6fccf7"/><path d="m269.671875 237.042969h-105.246094c-52.09375 0-94.375-42.136719-94.550781-94.230469l-.160156-46.917969h200.429687zm0 0" fill="#ffc648"/><path d="m330.945312 330.824219c-1.210937-20.605469-14.292968-37.398438-33.761718-46.515625-23.832032-11.160156-81.152344-28.042969-81.152344-28.042969-6.273438-1.164063-10.820312-6.636719-10.820312-13.015625v-37.101562h-70.5625v37.101562c0 6.378906-4.546876 11.851562-10.820313 13.015625 0 0-57.320313 16.882813-81.152344 28.042969-19.46875 9.117187-32.550781 25.910156-33.761719 46.515625l-1.410156 116.859375c-.152344 12.308594 9.789063 22.367187 22.097656 22.367187h280.65625c12.308594 0 22.246094-10.058593 22.097657-22.367187zm0 0" fill="#ffe5d0"/><path d="m330.945312 330.824219c-1.210937-20.605469-14.292968-37.398438-33.761718-46.515625-23.832032-11.160156-81.152344-28.042969-81.152344-28.042969-6.273438-1.164063-10.820312-6.636719-10.820312-13.015625v-37.101562h-50.953126v57c0 6.378906 4.550782 11.851562 10.820313 13.015624 0 0 57.320313 16.882813 81.152344 28.042969 19.472656 9.113281 32.554687 25.910157 33.761719 46.515625l1.410156 116.859375c.011718.835938-.027344 1.65625-.109375 2.472657h28.964843c12.308594 0 22.246094-10.0625 22.097657-22.371094zm0 0" fill="#f9b87f"/><path d="m97.371094 114.28125-10.167969-1.027344c-3.683594-.375-7.203125.523438-10.117187 2.339844-5.066407 3.15625-7.746094 9.050781-7.277344 15l.035156 12.433594c.042969 14.195312 13.425781 24.644531 27.167969 21.097656.234375-.058594.359375-.097656.359375-.097656zm0 0" fill="#f9b87f"/><path d="m221.613281 40.734375c-12.125-11.214844-29.171875-21-51.683593-21.269531-22.515626.269531-39.558594 10.054687-51.6875 21.269531-15.464844 14.296875-23.84375 35.535156-23.84375 57.453125l.023437 54.128906c.425781 21.304688 12.515625 45.847656 25.292969 58.515625 11.753906 11.65625 27.699218 25.941407 50.214844 26.210938 22.515624-.269531 38.460937-14.554688 50.214843-26.210938 12.777344-12.667969 24.867188-37.210937 25.292969-58.515625l.019531-54.128906c0-21.917969-8.378906-43.15625-23.84375-57.453125zm0 0" fill="#ffe5d0"/><path d="m221.613281 40.734375c-12.125-11.214844-29.171875-21-51.683593-21.269531-9.308594.113281-17.667969 1.867187-25.144532 4.660156 10.609375 3.960938 19.429688 10.03125 26.542969 16.609375 15.464844 14.296875 23.84375 35.535156 23.84375 57.453125l-.023437 54.128906c-.425782 21.304688-12.515626 45.847656-25.289063 58.515625-6.800781 6.742188-15.007813 14.359375-25.074219 19.640625 7.335938 3.847656 15.652344 6.457032 25.144532 6.570313 22.511718-.269531 38.457031-14.554688 50.214843-26.210938 12.777344-12.667969 24.867188-37.210937 25.292969-58.515625l.019531-54.128906c0-21.917969-8.378906-43.15625-23.84375-57.453125zm0 0" fill="#f9b87f"/><path d="m330.945312 330.824219c-1.210937-20.605469-14.292968-37.398438-33.761718-46.515625-11.714844-5.484375-31.511719-12.347656-48.621094-17.914063v1.0625c0 34.8125-28.222656 63.03125-63.035156 63.03125h-31.195313c-34.8125 0-63.035156-28.21875-63.035156-63.03125v-1.0625c-17.109375 5.566407-36.90625 12.429688-48.621094 17.914063-19.46875 9.117187-32.550781 25.910156-33.761719 46.515625l-1.410156 116.859375c-.152344 12.308594 9.789063 22.367187 22.097656 22.367187h280.65625c12.308594 0 22.246094-10.058593 22.097657-22.367187zm0 0" fill="#ff87b1"/><path d="m297.183594 284.308594c-11.714844-5.484375-31.511719-12.347656-48.621094-17.914063v1.0625c0 12.332031-3.558594 23.828125-9.679688 33.546875 2.683594 1.105469 5.15625 2.179688 7.347657 3.203125 19.46875 9.117188 32.554687 25.910157 33.761719 46.515625l1.410156 116.859375c.011718.835938-.03125 1.660157-.109375 2.472657h28.960937c12.3125 0 22.25-10.058594 22.101563-22.371094l-1.414063-116.855469c-1.207031-20.609375-14.289062-37.402344-33.757812-46.519531zm0 0" fill="#ff579a"/><path d="m269.765625 85.96875c-.839844-41.742188-34.921875-75.144531-76.671875-75.144531h-46.304688c-41.742187 0-75.816406 33.386719-76.667968 75.121093l-.390625 18.960938c-.171875 3.027344 2.714843 4.257812 6.570312 4.574219.253907-.183594.515625-.363281.785157-.53125 2.914062-1.816407 6.433593-2.714844 10.117187-2.34375l7.199219.730469c.910156-12.980469 3.042968-23.636719 5.566406-32.171876 4.167969-14.109374 21.40625-19.28125 32.640625-9.785156 40.71875 34.40625 86.019531 51.535156 112.84375 53.554688l-.015625 33.382812c-.425781 21.304688-12.515625 45.847656-25.292969 58.515625-4.359375 4.324219-9.300781 9.011719-14.9375 13.210938l.03125 29.332031c.035157 33.152344 25.015625 60.460938 57.179688 64.171875 4.003906.460937 7.496093-2.742187 7.5-6.773437zm0 0" fill="#ffc648"/><path d="m269.765625 85.96875c-.839844-41.742188-34.921875-75.144531-76.671875-75.144531h-46.304688c-.609374 0-1.214843.03125-1.824218.042969 40.914062.960937 74.019531 33.972656 74.847656 75.105468l.019531 27.882813c9.597657 2.84375 18.300781 4.53125 25.617188 5.082031l-.011719 33.378906c-.425781 21.304688-12.515625 45.847656-25.292969 58.515625-.082031.082031-.167969.164063-.25.246094l.058594 83.296875c10.367187 12.597656 25.402344 21.203125 42.460937 23.171875 4.007813.460937 7.496094-2.738281 7.503907-6.769531zm0 0" fill="#fd9e28"/><path d="m361.421875 62.144531c-1.800781 0-2.570313.773438-3.34375 2.226563l-13.105469 24.757812-13.019531-24.757812c-.773437-1.539063-1.628906-2.226563-3.425781-2.226563-3 0-7.367188 1.882813-7.367188 4.625 0 .257813.085938.6875.257813 1.113281l17.730469 30.667969c.171874.257813.257812.6875.257812 1.113281v21.589844c0 2.3125 2.824219 3.511719 5.566406 3.511719 2.828125 0 5.570313-1.199219 5.570313-3.511719v-21.589844c0-.429687.167969-.855468.339843-1.113281l17.648438-30.667969c.257812-.425781.257812-.855468.257812-1.113281 0-2.742187-4.371093-4.625-7.367187-4.625zm0 0"/><path d="m392.175781 107.289062c3.855469 0 7.964844-.34375 7.964844-7.625 0-9.507812-8.222656-16.101562-17.644531-16.101562-10.449219 0-18.761719 7.878906-18.761719 17.132812v7.28125c0 10.535157 8.566406 17.558594 20.730469 17.558594 9.167968 0 15.078125-4.195312 15.078125-7.109375 0-1.710937-1.625-4.882812-4.199219-4.882812-2.570312 0-4.878906 3.257812-10.535156 3.257812-5.996094 0-10.023438-3.257812-10.023438-8.226562v-1.285157zm-17.390625-8.90625c0-4.113281 3.597656-6.683593 7.453125-6.683593 4.109375 0 7.539063 2.742187 7.539063 6.765625 0 1.886718-.6875 2.3125-2.484375 2.3125h-12.507813zm0 0"/><path d="m419.675781 117.140625c-7.195312 0-9.082031-3.855469-11.566406-3.855469-2.140625 0-3.683594 3.085938-3.683594 4.882813 0 3.769531 6.769531 7.367187 15.507813 7.367187 10.105468 0 15.761718-4.882812 15.761718-12.507812 0-15.246094-20.558593-10.964844-20.558593-17.21875 0-1.710938 1.710937-3.851563 5.996093-3.851563 4.710938 0 7.367188 2.484375 9.421876 2.484375 2.570312 0 4.027343-3.769531 4.027343-5.3125 0-3.171875-6.683593-5.570312-13.621093-5.570312-11.480469 0-15.335938 6.683594-15.335938 12.765625 0 14.304687 20.304688 9.59375 20.304688 17.132812 0 1.714844-1.199219 3.683594-6.253907 3.683594zm0 0"/><path d="m338.445312 330.734375c0-.117187-.003906-.230469-.011718-.347656-1.324219-22.566407-15.554688-42.328125-38.070313-52.871094-5.566406-2.605469-13.28125-5.699219-22.976562-9.207031l-.121094-182.34375c0-.046875 0-.097656 0-.144532-.445313-22.164062-9.410156-42.917968-25.242187-58.433593-15.832032-15.519531-36.761719-24.0625-58.929688-24.0625h-46.304688c-22.160156 0-43.085937 8.539062-58.917968 24.050781-15.828125 15.511719-24.796875 36.257812-25.25 58.417969-.300782 14.753906-.371094 18.550781-.367188 19.769531h-.007812l.125 37.277344c.144531 42.09375 25.953125 79.472656 64.777344 94.675781v5.734375c0 2.765625-1.972657 5.136719-4.691407 5.644531-.253906.046875-.503906.105469-.75.179688-2.363281.695312-58.140625 17.171875-82.210937 28.441406-22.515625 10.542969-36.746094 30.308594-38.070313 52.871094-.007812.117187-.011719.230469-.011719.347656l-1.41015575 116.859375c-.09765625 7.972656 2.93749975 15.488281 8.53906275 21.164062 5.605469 5.671876 13.085937 8.796876 21.058593 8.796876h280.652344c7.976563 0 15.453125-3.125 21.058594-8.796876 5.605469-5.675781 8.640625-13.191406 8.542969-21.164062zm-260.828124-244.636719c.371093-18.210937 7.742187-35.261718 20.753906-48.007812 13.007812-12.746094 30.203125-19.769532 48.417968-19.769532h46.304688c18.21875 0 35.417969 7.023438 48.425781 19.777344 12.996094 12.734375 20.359375 29.761719 20.746094 47.953125l.148437 223.9375c-28.351562-3.703125-49.648437-27.890625-49.679687-56.621093l-.015625-25.691407c4.46875-3.59375 8.667969-7.515625 12.707031-11.519531 13.300781-13.1875 27.019531-39.300781 27.507813-63.691406.003906-.050782.003906-.097656.003906-.148438l.011719-33.390625c0-3.917969-3.015625-7.179687-6.925781-7.480469-25.820313-1.976562-69.371094-18.761718-108.464844-51.796874-7.214844-6.097657-16.917969-8.125-25.957032-5.417969-9.042968 2.707031-16.039062 9.738281-18.71875 18.808593-2.925781 9.902344-4.859374 20.820313-5.757812 32.472657-.015625.066406-.03125.136719-.046875.207031-3.386719-.222656-6.714844.277344-9.828125 1.460938 0 0 .222656-13.859376.367188-21.082032zm47.375 119.410156c-10.871094-10.78125-22.644532-33.101562-23.070313-53.269531l-.019531-43.632812c.042968-.246094.074218-.492188.089844-.746094.777343-11.054687 2.550781-21.339844 5.277343-30.570313 1.253907-4.253906 4.402344-7.421874 8.636719-8.6875 4.226562-1.265624 8.589844-.351562 11.972656 2.503907 19.203125 16.230469 41.101563 30.0625 63.328125 40.007812 16.582031 7.417969 32.890625 12.460938 46.738281 14.503907l-.007812 26.621093c-.429688 20.167969-12.203125 42.488281-23.074219 53.269531-11.585937 11.488282-25.570312 23.765626-44.933593 24.035157-19.367188-.269531-33.347657-12.546875-44.9375-24.035157zm-47.605469-61.457031c-.007813-.417969-.011719-.839843-.011719-1.261719l-.050781-14.648437c.304687-2.585937 1.664062-4.894531 3.726562-6.179687 1.621094-1.007813 3.492188-1.4375 5.394531-1.246094l.464844.046875.011719 31.558593v.144532c.027344 1.371094.097656 2.746094.203125 4.121094-1.617188-.542969-3.144531-1.382813-4.511719-2.5-3.0625-2.507813-4.933593-6.121094-5.226562-10.035157zm4.664062 26.65625c2.539063.882813 5.191407 1.410157 7.882813 1.566407 3.777344 13.828124 10.664062 26.933593 18.125 36.601562-11.921875-10.121094-20.929688-23.3125-26.007813-38.167969zm43.574219 92.847657c9.601562-1.988282 16.523438-10.460938 16.523438-20.304688v-5.667969c8.167968 4.171875 17.265624 6.832031 27.691406 6.957031.03125.003907.058594.003907.089844.003907s.058593 0 .089843-.003907c10.433594-.125 19.535157-2.789062 27.707031-6.96875l.007813 15.8125c.027344 21.859376 9.804687 41.636719 25.40625 54.921876-10.195313 9.410156-23.53125 14.683593-37.613281 14.683593h-31.195313c-29.160156 0-53.140625-22.589843-55.367187-51.1875 13.644531-4.367187 24.648437-7.648437 26.660156-8.246093zm195.015625 194.660156c-2.761719 2.796875-6.453125 4.339844-10.386719 4.339844h-32.019531v-74.007813c0-4.144531-3.355469-7.5-7.5-7.5-4.140625 0-7.5 3.355469-7.5 7.5v74.007813h-184.433594v-74.007813c0-4.144531-3.355469-7.5-7.5-7.5-4.140625 0-7.5 3.355469-7.5 7.5v74.007813h-34.199219c-3.933593 0-7.621093-1.542969-10.386718-4.339844-2.765625-2.800782-4.261719-6.507813-4.214844-10.441406l1.410156-116.675782c1.070313-17.164062 11.792969-31.734375 29.445313-39.996094 9.335937-4.371093 24.160156-9.710937 38.527343-14.527343 4.488282 34.601562 34.144532 61.414062 69.949219 61.414062h31.195313c19.058594 0 37.035156-7.597656 50.257812-21.050781 7.808594 4.1875 16.5 6.988281 25.773438 8.058594.535156.0625 1.074218.09375 1.609375.09375 3.453125 0 6.824219-1.273438 9.4375-3.601563 3.054687-2.71875 4.808593-6.621093 4.8125-10.71875l-.019531-26.476562c6.867187 2.570312 12.429687 4.851562 16.605468 6.804687 17.648438 8.265625 28.375 22.835938 29.445313 39.996094l1.40625 116.679688c.046875 3.933593-1.449219 7.640624-4.214844 10.441406zm0 0"/><path d="m464.367188 0h-180.71875c-6.632813 0-13.054688 1.339844-19.089844 3.984375-3.792969 1.660156-5.523438 6.082031-3.859375 9.878906 1.660156 3.792969 6.082031 5.519531 9.878906 3.859375 4.125-1.808594 8.523437-2.722656 13.070313-2.722656h180.71875c17.992187 0 32.632812 14.636719 32.632812 32.632812v95.265626c0 17.996093-14.640625 32.632812-32.632812 32.632812h-81.539063c-1.652344 0-3.261719.546875-4.570313 1.554688l-63.542968 48.855468 7.871094-41.511718c.414062-2.195313-.167969-4.460938-1.59375-6.183594-1.425782-1.71875-3.539063-2.714844-5.773438-2.714844h-15.46875c-4.140625 0-7.5 3.355469-7.5 7.5s3.359375 7.5 7.5 7.5h6.410156l-7.523437 39.671875c-.957031 5.046875 1.253906 10.042969 5.625 12.730469 2 1.230468 4.222656 1.835937 6.433593 1.835937 2.636719 0 5.257813-.859375 7.46875-2.558593l67.214844-51.679688h78.988282c26.265624 0 47.632812-21.371094 47.632812-47.632812v-95.265626c0-26.265624-21.367188-47.632812-47.632812-47.632812zm0 0"/><path d="m170.851562 171.085938h4.964844c4.140625 0 7.5-3.359376 7.5-7.5 0-4.089844-3.269531-7.410157-7.335937-7.5v-9.9375c0-4.144532-3.355469-7.5-7.5-7.5-4.140625 0-7.5 3.355468-7.5 7.5v15.066406c0 5.441406 4.429687 9.871094 9.871093 9.871094zm0 0"/><path d="m198.691406 189.347656c2.21875-3.5 1.175782-8.132812-2.324218-10.347656-3.503907-2.21875-8.136719-1.175781-10.347657 2.324219-2.867187 4.53125-9.226562 7.457031-16.195312 7.457031-6.972657 0-13.328125-2.925781-16.195313-7.457031-2.214844-3.5-6.847656-4.542969-10.347656-2.324219-3.5 2.214844-4.542969 6.847656-2.328125 10.347656 5.632813 8.902344 16.695313 14.433594 28.871094 14.433594 12.171875 0 23.234375-5.527344 28.867187-14.433594zm0 0"/><path d="m204.316406 146.496094c4.140625 0 7.5-3.355469 7.5-7.5v-6.863282c0-4.144531-3.359375-7.5-7.5-7.5-4.144531 0-7.5 3.355469-7.5 7.5v6.863282c0 4.140625 3.355469 7.5 7.5 7.5zm0 0"/><path d="m142.824219 138.996094v-6.863282c0-4.144531-3.359375-7.5-7.5-7.5s-7.5 3.355469-7.5 7.5v6.863282c0 4.144531 3.359375 7.5 7.5 7.5s7.5-3.359375 7.5-7.5zm0 0"/></svg>