<svg id="Capa_1" enable-background="new 0 0 510.78 510.78" height="512" viewBox="0 0 510.78 510.78" width="512" xmlns="http://www.w3.org/2000/svg"><g><g><path d="m169.018 407.77h172.748v30.783h-172.748z" fill="#f2fbff"/><path d="m169.022 407.766h43v30.79h-43z" fill="#d8ecfe"/><path d="m162.031 497.598-27.98-.032c-2.652-.003-4.567-2.539-3.844-5.091l44.172-155.814 33.604 9.526-42.099 148.501c-.488 1.724-2.062 2.912-3.853 2.91z" fill="#7397b8"/><path d="m348.753 497.598 27.98-.032c2.652-.003 4.567-2.539 3.844-5.091l-44.172-155.814-33.604 9.526 42.099 148.502c.488 1.723 2.062 2.911 3.853 2.909z" fill="#7397b8"/><path d="m487.446 315.008h-464.108v-267.652c0-6.627 5.373-12 12-12h440.109c6.627 0 12 5.373 12 12v267.652z" fill="#95d6a4"/><path d="m60.342 35.356c-6.63 0-12 5.37-12 12v267.65h-25v-267.65c0-6.63 5.37-12 12-12z" fill="#78c2a4"/><path d="m445.262 312.703h-69.312v-31.261c0-4.418 3.582-8 8-8h53.312c4.418 0 8 3.582 8 8z" fill="#8795de"/><path d="m407.952 273.446c-4.42 0-8 3.58-8 8v31.26h-24v-31.26c0-4.42 3.58-8 8-8z" fill="#6c7fd8"/><path d="m495.278 357.79h-479.772c-4.418 0-8-3.582-8-8v-36.435c0-4.418 3.582-8 8-8h479.772c4.418 0 8 3.582 8 8v36.435c0 4.419-3.582 8-8 8z" fill="#f2fbff"/><path d="m40.502 357.786h-25c-4.41 0-8-3.58-8-8v-36.43c0-4.42 3.59-8 8-8h25c-4.41 0-8 3.58-8 8v36.43c0 4.42 3.59 8 8 8z" fill="#d8ecfe"/><path d="m298.883 57.529h-89.913c-4.418 0-8-3.582-8-8v-28.347c0-4.418 3.582-8 8-8h89.913c4.418 0 8 3.582 8 8v28.348c0 4.418-3.581 7.999-8 7.999z" fill="#f2fbff"/><path d="m233.972 57.526h-25c-4.42 0-8-3.58-8-8v-28.34c0-4.42 3.58-8 8-8h25c-4.42 0-8 3.58-8 8v28.34c0 4.42 3.58 8 8 8z" fill="#d8ecfe"/></g><g><path d="m495.28 297.859h-.34v-250.5c0-10.752-8.748-19.5-19.5-19.5h-24.39c-4.143 0-7.5 3.358-7.5 7.5s3.357 7.5 7.5 7.5h24.39c2.481 0 4.5 2.019 4.5 4.5v250.5h-27.18v-16.42c0-8.547-6.953-15.5-15.5-15.5h-53.31c-8.547 0-15.5 6.953-15.5 15.5v16.42h-337.61v-250.5c0-2.481 2.019-4.5 4.5-4.5h158.128v6.669c0 8.547 6.953 15.5 15.5 15.5h89.913c8.547 0 15.5-6.953 15.5-15.5v-6.669h101.669c4.143 0 7.5-3.358 7.5-7.5s-3.357-7.5-7.5-7.5h-101.669v-6.678c0-8.547-6.953-15.5-15.5-15.5h-89.913c-8.547 0-15.5 6.953-15.5 15.5v6.678h-158.128c-10.752 0-19.5 8.748-19.5 19.5v250.5h-.34c-8.547 0-15.5 6.953-15.5 15.5v36.43c0 8.547 6.953 15.5 15.5 15.5h26.47c4.142 0 7.5-3.358 7.5-7.5s-3.358-7.5-7.5-7.5h-26.47c-.271 0-.5-.229-.5-.5v-36.43c0-.271.229-.5.5-.5h479.78c.271 0 .5.229.5.5v36.43c0 .271-.229.5-.5.5h-418.31c-4.142 0-7.5 3.358-7.5 7.5s3.358 7.5 7.5 7.5h81.498l-35.468 125.126c-.999 3.488-.321 7.152 1.857 10.055 2.185 2.909 5.525 4.585 9.186 4.6l27.988.03c5.111 0 9.661-3.435 11.066-8.364l14.369-50.686h135.85l14.372 50.696c1.402 4.918 5.952 8.354 11.071 8.354l28.001-.03c3.64-.014 6.98-1.691 9.164-4.601 2.179-2.902 2.855-6.567 1.862-10.035l-35.474-125.145h142.968c8.547 0 15.5-6.953 15.5-15.5v-36.43c0-8.547-6.953-15.5-15.5-15.5zm-286.812-276.678c0-.276.224-.5.5-.5h89.913c.275 0 .5.224.5.5v28.348c0 .276-.225.5-.5.5h-89.913c-.276 0-.5-.224-.5-.5zm174.982 260.258c0-.276.225-.5.5-.5h53.311c.275 0 .5.224.5.5v16.42h-54.311zm-83.029 83.85 9.916 34.98h-109.894l9.916-34.98zm-141.034 124.807-20.699-.022 35.372-124.785h20.708zm32.33-59.047 4.474-15.78h118.399l4.474 15.78zm180.375 59.025-20.699.022-35.381-124.807h20.708z"/><path d="m138.29 117.278c-1.565-3.806-5.233-6.263-9.347-6.263-.003 0-.007 0-.01 0-4.118.003-7.786 2.469-9.346 6.281-.023.056-.045.113-.067.17l-43.195 113.413c-1.475 3.871.468 8.204 4.339 9.678 3.873 1.477 8.204-.469 9.678-4.339l8.918-23.415h59.049l8.828 23.394c1.134 3.003 3.987 4.854 7.019 4.854.879 0 1.775-.156 2.646-.485 3.875-1.462 5.832-5.79 4.369-9.665l-42.801-113.419c-.026-.069-.053-.137-.08-.204zm-33.316 80.524 23.947-62.876 23.728 62.876z"/><path d="m252.233 109.313h-33.415c-4.142 0-7.5 3.358-7.5 7.5v52.97.085 61.978c0 1.995.795 3.908 2.208 5.315 1.406 1.4 3.309 2.185 5.292 2.185h.033c.308-.001 30.85-.137 39.216-.137 21.209 0 38.464-17.254 38.464-38.463 0-14.529-8.099-27.199-20.018-33.741 5.988-6.127 9.688-14.499 9.688-23.723.001-18.73-15.238-33.969-33.968-33.969zm0 15c10.459 0 18.969 8.51 18.969 18.97 0 10.459-8.51 18.969-18.969 18.969-2.454 0-25.915.031-25.915.031v-37.97zm5.835 99.897c-5.78 0-22.056.064-31.75.104v-47.031h31.75c12.938 0 23.464 10.525 23.464 23.463s-10.526 23.464-23.464 23.464z"/><path d="m326.195 174.33c0 35.85 29.166 65.017 65.017 65.017 14.13 0 26.771-4.606 36.554-13.319 1.92-1.709 3.746-3.593 5.428-5.599 2.661-3.174 2.246-7.905-.929-10.566-3.173-2.662-7.904-2.245-10.565.928-1.216 1.45-2.53 2.807-3.909 4.035-7.094 6.318-16.036 9.521-26.578 9.521-27.579 0-50.017-22.438-50.017-50.017 0-27.58 22.438-50.017 50.017-50.017 10.023 0 19.692 2.952 27.96 8.538 3.433 2.318 8.095 1.416 10.413-2.016 2.318-3.433 1.416-8.095-2.017-10.414-10.757-7.267-23.329-11.108-36.356-11.108-35.852 0-65.018 29.167-65.018 65.017z"/></g></g></svg>