<svg height="511pt" viewBox="0 0 511 511.998" width="511pt" xmlns="http://www.w3.org/2000/svg"><path d="m460.488281 381.191406-33.753906-5.167968-5.171875-33.761719-33.761719-5.175781-5.179687-33.765626-33.761719-5.175781-5.175781-33.761719-55.117188-55.117187 24.039063-89.714844-111.179688-111.179687-151.871093 40.695312-40.695313 151.871094 111.179687 111.179688 89.714844-24.039063 215.554688 215.550781 62.152344-16.652344 16.65625-62.15625c0-.003906-17.433594-17.4375-43.628907-43.628906zm-327.613281-248.804687c-11.660156 11.664062-30.566406 11.664062-42.226562 0-11.660157-11.660157-11.660157-30.566407 0-42.226563 11.660156-11.664062 30.566406-11.660156 42.226562 0s11.660156 30.566406 0 42.226563zm0 0" fill="#f8e868"/><path d="m239.757812 288.074219-23.660156 6.34375 209.210938 209.210937 23.660156-6.339844zm0 0" fill="#e0c938"/><path d="m38.863281 200.9375 40.695313-151.871094 128.207031-34.355468-6.339844-6.339844-151.871093 40.695312-40.691407 151.871094 111.175781 111.179688 23.660157-6.339844zm0 0" fill="#e0c938"/><path d="m159.789062 187.585938-10.609374-10.609376 10.609374-10.605468 10.605469 10.605468zm17.675782-17.679688-10.605469-10.609375 10.605469-10.605469 10.609375 10.605469zm0 0" fill="#fff"/><path d="m464.054688 374.144531-30.738282-4.699219-5.179687-33.761718-33.761719-5.179688-5.179688-33.761718-33.761718-5.179688-4.707032-30.75-53.800781-53.789062 24.042969-89.714844-48.925781-48.933594-10.605469 10.605469 42.800781 42.8125-24.042969 89.714843 56.449219 56.4375 5.628907 36.773438 33.765624 5.183594 5.179688 33.761718 33.761719 5.179688 5.179687 33.765625 36.765625 5.621094c18.851563 18.855469 32.917969 32.921875 38.824219 38.832031l-12.167969 45.421875-55.203125-55.203125-10.605468 10.609375 55.203124 55.203125-45.425781 12.175781-215.550781-215.5625-89.714844 24.042969-105.054687-105.054688 38.453125-143.503906 143.5-38.460937 42.800781 42.8125 10.605469-10.605469-48.921875-48.9375-160.234375 42.945312-42.933594 160.234376 117.300781 117.296874 89.714844-24.039062 215.550781 215.558594 70.519532-18.902344 18.894531-70.519531c-24.464844-24.460938-40.46875-40.46875-48.425781-48.429688zm0 0"/><path d="m85.34375 84.855469c-14.601562 14.597656-14.605469 38.234375 0 52.835937 14.566406 14.566406 38.269531 14.566406 52.835938 0 14.566406-14.566406 14.566406-38.269531 0-52.835937-14.566407-14.566407-38.269532-14.566407-52.835938 0zm42.226562 10.605469c8.71875 8.71875 8.71875 22.90625 0 31.621093-8.714843 8.71875-22.902343 8.71875-31.617187 0-8.738281-8.734375-8.742187-22.878906-.003906-31.617187 8.714843-8.714844 22.902343-8.722656 31.621093-.003906zm0 0"/><path d="m271.523438 281.625 10.609374-10.605469 126.792969 126.792969-10.609375 10.605469zm0 0"/></svg>