<svg id="Capa_1" enable-background="new 0 0 511.958 511.958" height="512" viewBox="0 0 511.958 511.958" width="512" xmlns="http://www.w3.org/2000/svg"><g><g><path d="m490.458 320.561v-259.934c0-7.58-6.145-13.725-13.725-13.726h14-.001-398.908c-7.581 0-13.726 6.145-13.726 13.726v259.934c0 7.581 6.145 13.726 13.726 13.726h384.909c7.58 0 13.725-6.145 13.725-13.726z" fill="#e19974"/><path d="m490.732 46.902h-15.999c7.58.001 13.725 6.146 13.725 13.726v259.934c0 7.581-6.145 13.726-13.726 13.726h16c7.581 0 13.726-6.145 13.726-13.726v-259.935c0-7.58-6.145-13.725-13.726-13.725z" fill="#dc8758"/><path d="m458.717 306.835c2.369 0 4.29-1.92 4.29-4.289v-223.903c0-2.369-1.92-4.289-4.289-4.29h-348.879c-2.369 0-4.289 1.92-4.289 4.29v223.903c0 2.369 1.92 4.289 4.289 4.289h362.878.001z" fill="#728192"/><g><path d="m171.279 307.635v-4.557c-16.191 0-115.786 0-130.473 0-18.418 0-33.348 14.93-33.348 33.348v128.63h180.317c0-21.18 0-117.388 0-128.678 0-12.26-6.629-22.964-16.496-28.743z" fill="#eaf6ff"/><path d="m171.279 303.078c-12.837 0-11.256 0-18.128 0l5.701 1.121c14.233 3.785 24.722 16.755 24.722 32.179v128.678h21.005v-128.678c0-18.391-14.909-33.3-33.3-33.3z" fill="#d8ecfe"/><path d="m91.989 185.808h27.657c34.415 0 62.314 27.899 62.314 62.314 0 34.415-27.899 62.314-62.314 62.314h-27.657c-34.415 0-62.314-27.899-62.314-62.314-.001-34.415 27.898-62.314 62.314-62.314z" fill="#3d5168"/><path d="m143.2 173.871h35.269c13.56 0 24.552 10.992 24.552 24.552v.151c0 13.56-10.992 24.552-24.552 24.552h-35.269z" fill="#f89580"/><path d="m68.434 223.126h-35.269c-13.56 0-24.552-10.992-24.552-24.552v-.151c0-13.56 10.992-24.552 24.552-24.552h35.269z" fill="#ffb09e"/><path d="m105.706 215.046v-.02h-30.268v70.891l30.268 44.215v.02l30.267-44.215v-70.891z" fill="#ffa78f"/><path d="m131.716 465.056v-130.492l26.01-31.953-21.753-16.674-27.667 40.417c-.626.914-1.613 1.371-2.6 1.371v137.332c11.656-.001 23.263-.001 26.01-.001z" fill="#c4e2ff"/><path d="m105.706 327.725c-.987 0-1.974-.457-2.6-1.371l-27.667-40.417-21.753 16.674 26.01 31.953c-.476 65.968-.387 37.663-.387 130.492h26.397z" fill="#d8ecfe"/><path d="m242.397 459.805v-83.67c0-2.9-2.35-5.25-5.25-5.251h-38.679c-2.9 0-5.251 2.351-5.251 5.251v88.921h43.928c2.901 0 5.252-2.35 5.252-5.251z" fill="#eaf6ff"/><path d="m236.4 370.884 46.512-25.407c1.353-.739 2.195-2.158 2.195-3.7 0-4.137-3.353-7.49-7.49-7.49h-45.365c-9.65 0-18.131 6.398-20.781 15.677l-5.975 20.921h47.708-16.804z" fill="#ffcebf"/><path d="m294.421 334.287h-18.904c4.137 0 7.49 3.353 7.49 7.49 0 1.542-.842 2.961-2.195 3.7l-46.512 25.408h18.904l46.512-25.407c1.353-.739 2.195-2.158 2.195-3.7 0-4.137-3.353-7.491-7.49-7.491z" fill="#ffb09e"/><path d="m253.95 370.885h-18.904c2.9 0 5.251 2.351 5.251 5.251v83.67c0 2.9-2.351 5.251-5.251 5.251h18.904c2.9 0 5.251-2.351 5.251-5.251v-83.67c0-2.9-2.351-5.251-5.251-5.251z" fill="#d8ecfe"/><path d="m165.666 211.301v-25.631c0-41.551-34.758-71.837-68.353-71.837-36.092 4.054-64.152 34.662-64.152 71.837v25.631c0 37.175 28.059 67.783 64.152 71.837 33.485 0 68.353-30.161 68.353-71.837z" fill="#ffcebf"/><path d="m97.314 113.833c36.092 4.054 64.152 34.662 64.152 71.837v25.631c0 37.175-28.059 67.783-64.152 71.837 44.336 4.98 80.955-29.474 80.955-71.837v-25.631c0-42.436-36.694-76.811-80.955-71.837z" fill="#ffb09e"/><path d="m151.97 225.24c-.964 0-7.9 0-8.927 0-3.48 0-6.301 2.822-6.301 6.301 0 3.48 2.822 6.301 6.301 6.301h8.927c3.48 0 6.301-2.822 6.301-6.301s-2.821-6.301-6.301-6.301z" fill="#fe8f83"/><path d="m59.441 225.24h8.927c3.48 0 6.301 2.822 6.301 6.301 0 3.48-2.822 6.301-6.301 6.301-1.03 0-7.965 0-8.927 0-3.48 0-6.301-2.822-6.301-6.301s2.821-6.301 6.301-6.301z" fill="#fe8f83"/><path d="m106.019 74.82h-.404c-3.488 0-6.921.232-10.301.634 42.719 5.094 75.848 41.424 75.848 85.515v17.077h21.005v-17.077c.001-47.579-38.569-86.149-86.148-86.149z" fill="#3d5168"/><g><g><path d="m95.315 75.454c-42.719 5.094-75.849 41.424-75.849 85.515v17.077h42.504c24.327 0 44.049-19.721 44.049-44.048 0 24.327 19.721 44.048 44.048 44.048h21.096v-17.077c0-44.09-33.129-80.421-75.848-85.515z" fill="#57697d"/></g></g></g><path d="m472.717 74.353h-16c2.369 0 4.29 1.92 4.29 4.29v223.903c0 2.369-1.92 4.289-4.29 4.289h16c2.369 0 4.29-1.92 4.29-4.289v-223.903c-.001-2.37-1.921-4.29-4.29-4.29z" fill="#7a8c98"/><path d="m420.101 306.835c4.264 0 7.721-3.457 7.721-7.721v-26.464c0-4.264-3.456-7.72-7.72-7.721h-63.464c-4.264 0-7.721 3.457-7.721 7.721v26.465c0 4.264 3.457 7.721 7.721 7.721h77.463.001-14.001z" fill="#5de1c4"/><path d="m434.101 264.929h-16c4.264 0 7.721 3.457 7.721 7.721v26.465c0 4.264-3.457 7.721-7.721 7.721h16c4.264 0 7.721-3.457 7.721-7.721v-26.465c0-4.265-3.457-7.721-7.721-7.721z" fill="#0ed2b3"/></g><g><path d="m121.158 225.617c-4.143 0-7.5 3.358-7.5 7.5 0 4.362-3.549 7.911-7.911 7.911-4.361 0-7.91-3.549-7.91-7.911 0-4.142-3.357-7.5-7.5-7.5s-7.5 3.358-7.5 7.5c0 12.633 10.277 22.911 22.91 22.911s22.911-10.278 22.911-22.911c0-4.142-3.357-7.5-7.5-7.5z"/><path d="m141.166 193.085c-4.143 0-7.5 3.358-7.5 7.5v9.85c0 4.142 3.357 7.5 7.5 7.5s7.5-3.358 7.5-7.5v-2.626c3.158-.884 5.474-3.783 5.474-7.223 0-4.142-3.357-7.5-7.5-7.5h-5.474z"/><path d="m70.329 193.085h-5.473c-4.143 0-7.5 3.358-7.5 7.5 0 3.439 2.315 6.338 5.473 7.223v2.627c0 4.142 3.357 7.5 7.5 7.5s7.5-3.358 7.5-7.5v-9.85c0-4.142-3.357-7.5-7.5-7.5z"/><path d="m490.732 39.401h-60c-4.143 0-7.5 3.358-7.5 7.5s3.357 7.5 7.5 7.5h60c3.383 0 6.226 2.725 6.226 6.226v259.934c0 3.433-2.793 6.226-6.226 6.226-15.286 0-270.229 0-279.744 0-.99-4.153-2.796-8.541-5.297-12.452h267.025c6.501 0 11.789-5.289 11.789-11.79v-223.902c0-6.501-5.288-11.79-11.789-11.79-385.921 0-363.643-.237-366.093.474-6.946-.041-13.719.562-21.026 2.163v-8.862c0-3.433 2.793-6.226 6.226-6.226h303.909c4.143 0 7.5-3.358 7.5-7.5s-3.357-7.5-7.5-7.5h-303.909c-11.704 0-21.226 9.522-21.226 21.226v13.507c-34.318 13.906-58.59 47.587-58.59 86.834v13.42c-6.857 6.046-10.854 14.76-10.854 24.034v.151c0 13.183 8.654 26.738 23.59 30.815-1.695 6.074-2.571 12.343-2.571 18.734 0 17.831 6.769 34.69 18.619 47.457-22.497.03-40.791 18.341-40.791 40.846v69.812c0 4.142 3.357 7.5 7.5 7.5s7.5-3.358 7.5-7.5v-69.812c0-14.253 11.596-25.848 25.848-25.848h10.006l21.696 26.653v48.563c-.558 1.667-.387-3.161-.387 71.763h-57.163v-16.318c0-4.142-3.357-7.5-7.5-7.5s-7.5 3.358-7.5 7.5v23.818c0 4.142 3.357 7.5 7.5 7.5h246.45c7.031 0 12.751-5.72 12.751-12.751v-83.669c0-1.311-.2-2.576-.569-3.767l37.178-20.309c3.76-2.054 6.096-5.989 6.1-10.272h181.322c11.704 0 21.226-9.521 21.226-21.226v-259.936c0-11.773-9.576-21.226-21.226-21.226zm-134.094 259.934c-.122 0-.221-.099-.221-.221v-26.465c0-.122.099-.221.221-.221h77.464c.122 0 .221.099.221.221v26.465c0 .122-.099.221-.221.221zm112.868-217.482v217.482h-20.195c.001-.074.011-.147.011-.221v-26.465c0-8.393-6.828-15.221-15.221-15.221h-77.464c-8.393 0-15.221 6.828-15.221 15.221v26.465c0 .075.01.147.011.221h-153.004c-5.736-2.634-11.362-3.757-17.567-3.757 16.405-17.707 22.543-42.883 16.069-66.15 14.611-3.855 23.637-16.926 23.637-30.854v-.151c0-9.114-3.919-17.93-10.853-24.042 0-14.969 2.82-48.802-26.797-78.977-5.104-5.2-10.714-9.732-16.724-13.551zm-363.445 235.022-19.172-28.005c6.17 1.468 12.571 2.239 19.115 2.239 6.663 0 13.132-.833 19.323-2.378zm37.766-34.639v-.663c12.663-6.825 23.116-16.87 30.423-28.917-1.186 14.342-7.924 27.993-19.761 37.752-10.169-7.795-7.552-5.788-10.662-8.172zm41.984-96.69h3.878c1.066.666 5.874 5.652 5.874 12.877v.151c0 6.323-3.481 12.475-9.818 15.335.16-4.915.066-14.296.066-28.363zm-15.012 0c.015 1.405.014-.099.012 25.14-.055 4.307-.184 9.887-2.273 17.597-7.61 28.003-33.121 47.825-62.534 47.825-30.327 0-55.888-20.625-63.198-48.483-.023-.09-.048-.179-.071-.268-1.344-5.214-2.031-10.983-2.031-16.056 0-36.342.002-22.469.002-25.755h21.306c18.636 0 34.993-9.938 44.049-24.795 9.056 14.857 25.413 24.795 44.049 24.795zm-102.506 96.36v.33l-10.929 8.377c-11.508-9.377-18.709-22.966-19.986-37.746 7.456 12.185 18.217 22.361 30.915 29.039zm-41.285-120.937c0-43.605 35.574-78.649 78.648-78.649 42.9 0 76.883 33.956 78.953 74.687.13 2.606.101 3.281.1 13.539-14.301 0-20.23 0-34.6 0-20.153 0-36.549-16.396-36.549-36.549 0-4.142-3.357-7.5-7.5-7.5s-7.5 3.358-7.5 7.5c0 20.153-16.396 36.549-36.549 36.549-12.361 0-22.647 0-35.004 0v-9.577zm-10.854 37.605v-.151c0-4.978 2.163-9.655 5.874-12.877h3.676c0 27.949-.016 26.529.041 28.271-6.276-2.997-9.591-9.256-9.591-15.243zm69.712 131.256-21.135-25.964c5.465-4.189 5.845-4.481 9.343-7.162l24.486 35.769v125.083h-11.397v-66.995c.552-1.649.387 2.129.387-55.997 0-1.725-.595-3.397-1.684-4.734zm27.695 2.643 24.485-35.769 9.343 7.161-21.135 25.964c-1.089 1.338-1.684 3.01-1.684 4.735v122.992h-11.01v-125.083zm26.009 4.758 21.696-26.653h10.054c14.439 0 25.801 11.853 25.801 25.8v27.078c-6.259.661-11.403 6.023-11.403 12.68v81.421h-46.148zm112.131 120.326h-50.983v-79.172h50.983zm-.412-94.172h-35.851l3.245-11.361c1.722-6.027 7.302-10.237 13.569-10.237h58.574z"/><path d="m350.886 183.96h34.691c4.143 0 7.5-3.358 7.5-7.5s-3.357-7.5-7.5-7.5h-34.691c-4.143 0-7.5 3.358-7.5 7.5s3.357 7.5 7.5 7.5z"/><path d="m350.886 208.305h34.691c4.143 0 7.5-3.358 7.5-7.5s-3.357-7.5-7.5-7.5h-34.691c-4.143 0-7.5 3.358-7.5 7.5s3.357 7.5 7.5 7.5z"/><path d="m258.291 196.132h13.491v13.491c0 4.142 3.357 7.5 7.5 7.5s7.5-3.358 7.5-7.5v-13.491h12.997c4.143 0 7.5-3.358 7.5-7.5s-3.357-7.5-7.5-7.5h-12.997v-12.997c0-4.142-3.357-7.5-7.5-7.5s-7.5 3.358-7.5 7.5v12.997h-13.491c-4.143 0-7.5 3.358-7.5 7.5s3.357 7.5 7.5 7.5z"/><path d="m221.022 164.999h5.915v55.261c0 4.142 3.357 7.5 7.5 7.5s7.5-3.358 7.5-7.5v-62.761c0-4.142-3.357-7.5-7.5-7.5h-13.415c-4.143 0-7.5 3.358-7.5 7.5s3.358 7.5 7.5 7.5z"/><path d="m407.319 177.604c4.074.799 8.007-1.851 8.805-5.914.762-3.877 4.191-6.692 8.155-6.692 4.526 0 8.827 3.764 8.119 9.34-1.11 4.354-3.614 9.4-24.08 36.198-3.858 5.051-5.794 7.586-4.524 11.713 1.065 3.458 4.261 5.509 7.428 5.509h31.487c4.143 0 7.5-3.358 7.5-7.5s-3.357-7.5-7.5-7.5h-17.271c15.535-20.862 19.795-27.349 21.653-35.365 3.014-12.898-7.526-27.396-22.812-27.396-11.115 0-20.734 7.907-22.874 18.801-.798 4.066 1.85 8.009 5.914 8.806z"/><path d="m310.219 164.999h5.915v55.261c0 4.142 3.357 7.5 7.5 7.5s7.5-3.358 7.5-7.5v-62.761c0-4.142-3.357-7.5-7.5-7.5h-13.415c-4.143 0-7.5 3.358-7.5 7.5s3.357 7.5 7.5 7.5z"/></g></g></svg>