<svg id="Capa_1" enable-background="new 0 0 495.016 495.016" height="512" viewBox="0 0 495.016 495.016" width="512" xmlns="http://www.w3.org/2000/svg"><g><g><g><g><path d="m7.434 247.666h240.008v239.984h-240.008z" fill="#f35173"/></g><g><path d="m30.034 465.149 7.6-7.723v-179.852l-7.6-7.258v-22.65h-22.6v239.984h240.008v-22.501z" fill="#ec1646"/></g><g><path d="m247.508 247.666h240.008v239.984h-240.008z" fill="#a7eed4"/></g><g><path d="m270.107 464.992v-217.484h-22.599v239.984h240.008v-22.5z" fill="#71e4bf"/></g><g><path d="m37.634 277.574h179.74v179.853h-179.74z" fill="#fbf2e2"/></g><g><path d="m277.642 277.574h179.74v179.853h-179.74z" fill="#fbf2e2"/></g><g><path d="m59.908 434.8v-157.226h-22.274v179.852h179.74v-22.626z" fill="#f7e0ba"/></g><g><path d="m299.916 434.8v-157.226h-22.274v179.852h179.74v-22.626z" fill="#f7e0ba"/></g><g><path d="m127.504 7.524h240.008v239.984h-240.008z" fill="#faef93"/></g><g><path d="m150.104 225.008v-217.484h-22.6v239.984h240.008v-22.5z" fill="#e8ab4c"/></g><g><path d="m157.638 37.655h179.74v179.853h-179.74z" fill="#fbf2e2"/></g><g><path d="m179.912 194.881v-157.226h-22.274v179.853h179.74v-22.627z" fill="#f7e0ba"/></g><g><path d="m180.008 59.955h15v15h-15z" fill="#fff"/></g><g><path d="m180.008 89.955h15v15h-15z" fill="#fff"/></g><g><path d="m60.008 299.954h15v15h-15z" fill="#fff"/></g><g><path d="m60.008 329.954h15v15h-15z" fill="#fff"/></g><g><path d="m300.008 299.954h15v15h-15z" fill="#fff"/></g><g><path d="m300.008 329.954h15v15h-15z" fill="#fff"/></g></g></g><g><path d="m30.134 359.955h15v-74.816h164.74v164.853h-164.74v-75.037h-15v90.037h194.74v-194.853h-194.74z"/><path d="m164.744 435.003v-97.501c0-20.542-16.712-37.254-37.254-37.254s-37.254 16.712-37.254 37.254v97.501h15v-59.883h44.508v59.883zm-59.508-74.883c.164-19.14-4.25-42.839 22.254-44.873 26.511 2.036 22.087 25.749 22.253 44.873z"/><path d="m375.012 240.008v-239.984h-255.008v239.984h-120.004v254.984h412.508v-15h-157.5v-224.984h225.008v224.984h-22.634v15h37.634v-254.984zm-135.004 239.984h-225.008v-224.984h225.008zm-105.004-239.984v-224.984h225.008v224.984z"/><path d="m427.508 479.992h15v15h-15z"/><path d="m464.882 270.139h-194.74v194.853h194.74zm-15 179.853h-164.74v-164.853h164.74z"/><path d="m405.231 435.088v-15c-79.496 5.3-79.45-110.359 0-105.04v-15c-48.65-3.091-74.19 32.223-74.468 67.518-.259 32.885 21.49 67.522 74.468 67.522z"/><path d="m307.508 45.155h22.37v164.853h-164.74v-164.853h127.37v-15h-142.37v194.853h194.74v-194.853h-37.37z"/><path d="m284.932 105.167v-15.135c0-16.524-13.443-29.968-29.968-29.968h-44.968v135.04c27.171-1.976 72.441 10.884 74.935-29.968.224-13.573 1.315-28.123-10.167-37.509 6.23-5.501 10.168-13.539 10.168-22.46zm-15 59.968c0 8.253-6.715 14.968-14.968 14.968h-29.968v-45.088h29.968v.12c17.756 1.371 14.877 17.162 14.968 30zm0-59.968c.003 8.241-6.737 14.976-14.968 14.968v-.12h-29.968v-44.951h29.968c8.253 0 14.968 6.715 14.968 14.968z"/></g></g></svg>