<?xml version="1.0" encoding="iso-8859-1"?>
<!-- Generator: Adobe Illustrator 19.0.0, SVG Export Plug-In . SVG Version: 6.00 Build 0)  -->
<svg version="1.1" id="Capa_1" xmlns="http://www.w3.org/2000/svg" xmlns:xlink="http://www.w3.org/1999/xlink" x="0px" y="0px"
	 viewBox="0 0 512 512" style="enable-background:new 0 0 512 512;" xml:space="preserve">
<rect x="194.5" y="379" style="fill:#46C8BE;" width="123" height="123"/>
<rect x="71.5" y="379" style="fill:#F5C86E;" width="123" height="123"/>
<rect x="194.5" y="256" style="fill:#FF5A5A;" width="123" height="123"/>
<rect x="194.5" y="10" style="fill:#46C8BE;" width="123" height="123"/>
<rect x="133" y="133" style="fill:#A5DC69;" width="123" height="123"/>
<rect x="256" y="133" style="fill:#F5C86E;" width="123" height="123"/>
<rect x="317.5" y="379" style="fill:#A5DC69;" width="123" height="123"/>
<path d="M71.5,453.67c2.63,0,5.21-1.07,7.069-2.93c1.86-1.87,2.931-4.44,2.931-7.07c0-2.64-1.07-5.21-2.931-7.07
	c-1.859-1.87-4.439-2.93-7.069-2.93s-5.21,1.06-7.07,2.93c-1.86,1.86-2.93,4.431-2.93,7.07c0,2.63,1.069,5.21,2.93,7.07
	C66.29,452.6,68.87,453.67,71.5,453.67z"/>
<path d="M317.5,66.5c-2.63,0-5.21,1.069-7.07,2.93s-2.93,4.44-2.93,7.07s1.069,5.21,2.93,7.069c1.86,1.86,4.44,2.931,7.07,2.931
	s5.21-1.07,7.069-2.931c1.86-1.859,2.931-4.439,2.931-7.069s-1.07-5.21-2.931-7.07C322.71,67.569,320.13,66.5,317.5,66.5z"/>
<path d="M256,401.89c-13.839,0-25.098,11.259-25.098,25.099c0,5.522,4.478,10,10,10s10-4.478,10-10c0-2.812,2.287-5.099,5.098-5.099
	c4.31,0,5.098,1.717,5.098,5.099c0,11.163-17.603,27.775-26.119,34.065c-3.482,2.561-4.925,7.067-3.578,11.174
	c1.348,4.106,5.181,6.883,9.502,6.883h30.195c5.522,0,10-4.478,10-10s-4.478-10-10-10h-4.857
	c7.764-9.026,14.857-20.464,14.857-32.122C281.098,411.976,271.012,401.89,256,401.89z"/>
<path d="M137.167,474.479c5.522,0,10-4.478,10-10V416.52c0-4.045-2.437-7.691-6.173-9.239c-3.737-1.546-8.038-0.692-10.898,2.168
	l-16.665,16.665c-3.905,3.905-3.905,10.237,0,14.143c3.774,3.772,9.81,3.902,13.736,0.384v23.839
	C127.167,470.002,131.645,474.479,137.167,474.479z"/>
<path d="M218.446,206.944c0-14.742-11.993-26.735-26.735-26.735h-1.157v-4.89h15.313c5.522,0,10-4.478,10-10s-4.478-10-10-10
	h-25.313c-5.522,0-10,4.478-10,10v24.89c0,5.522,4.478,10,10,10h11.157c3.714,0,6.735,3.021,6.735,6.735
	c0,3.715-3.021,6.736-6.735,6.736h-11.157c-5.522,0-10,4.478-10,10s4.478,10,10,10h11.157
	C206.453,233.681,218.446,221.687,218.446,206.944z"/>
<path d="M240,327.474h15.682v14.006c0,5.522,4.478,10,10,10s10-4.478,10-10v-14.715c3.699-1.467,6.318-5.07,6.318-9.291
	s-2.62-7.824-6.318-9.291v-14.662c0-5.522-4.478-10-10-10s-10,4.478-10,10v13.953H250v-13.953c0-5.522-4.478-10-10-10
	s-10,4.478-10,10v23.953C230,322.996,234.478,327.474,240,327.474z"/>
<path d="M378.056,458.977h-12.377c-5.522,0-10,4.478-10,10s4.478,10,10,10h12.377c13.38,0,24.266-10.886,24.266-24.267
	c0-5.304-1.715-10.212-4.614-14.21c2.898-3.998,4.614-8.906,4.614-14.21c0-13.381-10.886-24.267-24.266-24.267h-12.377
	c-5.522,0-10,4.478-10,10s4.478,10,10,10h12.377c2.353,0,4.266,1.914,4.266,4.267c0,2.053-1.458,3.771-3.393,4.175
	c-0.29-0.01-0.58-0.022-0.873-0.022h-12.377c-5.522,0-10,4.478-10,10s4.478,10,10,10h4.779c0.467,0.067,0.941,0.113,1.426,0.113
	h6.172c0.292,0,0.583-0.012,0.873-0.022c1.935,0.404,3.393,2.122,3.393,4.175C382.321,457.063,380.408,458.977,378.056,458.977z"/>
<path d="M440.5,369h-113V266H379c5.522,0,10-4.478,10-10V133c0-5.522-4.478-10-10-10h-51.5v-6c0-5.522-4.478-10-10-10
	s-10,4.478-10,10v6H256h-51.5V20h103v11c0,5.522,4.478,10,10,10s10-4.478,10-10V10c0-5.522-4.478-10-10-10h-123
	c-5.522,0-10,4.478-10,10v113H133c-5.522,0-10,4.478-10,10v123c0,5.522,4.478,10,10,10h51.5v103h-113c-5.522,0-10,4.478-10,10v16
	c0,5.522,4.478,10,10,10s10-4.478,10-10v-6h103v103h-103v-6.333c0-5.522-4.478-10-10-10s-10,4.478-10,10V502c0,5.522,4.478,10,10,10
	h123h123h123c5.522,0,10-4.478,10-10V379C450.5,373.478,446.022,369,440.5,369z M317.5,143H369v103h-51.5H266V143H317.5z M143,143
	h51.5H246v103h-51.5H143V143z M256,266h51.5v103h-103V266H256z M204.5,389h103v103h-103V389z M430.5,492h-103V389h103V492z"/>
<path d="M317.591,233.681h1.542c13.56,0,24.591-11.031,24.591-24.59c0-13.56-11.031-24.591-24.591-24.591h-7.818
	c0.449-5.138,4.774-9.181,10.026-9.181h2.883c5.522,0,10-4.478,10-10s-4.478-10-10-10h-2.883c-16.577,0-30.064,13.486-30.064,30.063
	v21.984C291.276,221.877,303.081,233.681,317.591,233.681z M311.276,204.5h7.856c2.531,0,4.591,2.06,4.591,4.591
	s-2.06,4.59-4.591,4.59h-1.542c-3.481,0-6.314-2.832-6.314-6.313V204.5z"/>
<path d="M245.438,103.899c1.461,0.748,3.019,1.103,4.554,1.103c3.632,0,7.137-1.986,8.907-5.44l27-52.681
	c1.589-3.101,1.45-6.804-0.367-9.776c-1.816-2.973-5.049-4.785-8.532-4.785h-32c-5.522,0-10,4.478-10,10s4.478,10,10,10h15.638
	l-19.537,38.119C238.582,95.354,240.524,101.38,245.438,103.899z"/>
<g>
</g>
<g>
</g>
<g>
</g>
<g>
</g>
<g>
</g>
<g>
</g>
<g>
</g>
<g>
</g>
<g>
</g>
<g>
</g>
<g>
</g>
<g>
</g>
<g>
</g>
<g>
</g>
<g>
</g>
</svg>
